<svg width="23" height="29" viewBox="0 0 23 29"
              fill="none" xmlns="http://www.w3.org/2000/svg">
              <path _ngcontent-uuw-c663=""
                d="M15.3359 7.78776C15.3359 11.6367 12.7615 14.7572 9.58594 14.7572C6.4104 14.7572 3.83594 11.6367 3.83594 7.78776C3.83594 3.93879 6.4104 0.818359 9.58594 0.818359C12.7615 0.818359 15.3359 3.93879 15.3359 7.78776Z"
                fill="#1f98c4"></path>
              <path _ngcontent-uuw-c663=""
                d="M18.5276 27.1483C17.5338 27.1439 16.5982 26.5791 15.9964 25.6203C15.3947 24.6615 15.1955 23.418 15.4573 22.2559C15.7194 21.0938 16.4126 20.1456 17.3329 19.6908C17.5291 19.5936 17.6728 19.3846 17.7162 19.1334C17.762 18.8795 17.6996 18.6148 17.5503 18.4286C16.4698 17.0656 14.976 16.2989 13.4166 16.3067H5.74998C4.22498 16.3067 2.76245 17.0409 1.68414 18.348C0.605829 19.655 0 21.4277 0 23.2761V27.9224C0 28.1277 0.0673843 28.3248 0.187176 28.47C0.306967 28.6152 0.469538 28.6968 0.63896 28.6968H18.5274C18.8804 28.6968 19.1664 28.3502 19.1664 27.9224C19.1664 27.4948 18.8804 27.1482 18.5274 27.1482L18.5276 27.1483Z"
                fill="#1f98c4"></path>
              <path _ngcontent-uuw-c663=""
                d="M18.5288 28.6968C17.1343 28.696 15.8196 27.9068 14.9743 26.5624C14.1287 25.2181 13.8491 23.4726 14.2179 21.8426C14.5869 20.2123 15.5621 18.884 16.855 18.2505C17.3855 17.984 17.9547 17.8497 18.5288 17.8557C20.1268 17.8557 21.603 18.8886 22.402 20.5659C23.201 22.2432 23.201 24.3093 22.402 25.9866C21.603 27.6637 20.1268 28.6969 18.5288 28.6969V28.6968ZM18.5288 19.4043C18.1213 19.4001 17.7175 19.495 17.3406 19.683C16.3484 20.1658 15.6213 21.2182 15.4034 22.4866C15.1854 23.7552 15.5054 25.0718 16.256 25.9946C17.0066 26.9174 18.0882 27.3237 19.1379 27.0776C20.1873 26.8313 21.0656 25.965 21.478 24.7695C21.8903 23.574 21.782 22.2076 21.1893 21.1292C20.5965 20.0509 19.5979 19.4035 18.5288 19.4043L18.5288 19.4043Z"
                fill="#1f98c4"></path>
              <path _ngcontent-uuw-c663=""
                d="M18.5294 26.3727C18.1766 26.3727 17.8906 26.026 17.8906 25.5982V20.9519C17.8906 20.5244 18.1766 20.1777 18.5294 20.1777C18.8823 20.1777 19.1683 20.5244 19.1683 20.9519V25.5982C19.1683 25.8036 19.101 26.0006 18.9812 26.1458C18.8614 26.291 18.6988 26.3727 18.5294 26.3727Z"
                fill="#1f98c4"></path>
              <path _ngcontent-uuw-c663=""
                d="M20.4447 24.0487H16.6114C16.2587 24.0487 15.9727 23.702 15.9727 23.2742C15.9727 22.8467 16.2587 22.5 16.6114 22.5H20.4447C20.7976 22.5 21.0836 22.8467 21.0836 23.2742C21.0836 23.702 20.7976 24.0487 20.4447 24.0487Z"
                fill="#1f98c4"></path>
            </svg>