<svg width="65" height="65" viewBox="0 0 65 65" fill="none" xmlns="http://www.w3.org/2000/svg">
<path d="M59.2378 5.74245H26.6229C26.0431 5.74245 25.7732 5.39401 25.0114 4.01052C24.1317 2.41388 22.8029 0 19.7553 0H5.763C2.58525 0 0 3.8734 0 8.6345V57.7091C0 61.7289 2.58525 65 5.763 65H59.237C62.4148 65 65 61.7289 65 57.7091V14.3777C64.9985 9.61566 62.4132 5.74131 59.237 5.74131L59.2378 5.74245ZM5.76187 3.98551H19.7542C21.0325 3.98551 21.4926 4.72037 22.3348 6.2475C23.1431 7.71532 24.2515 9.72806 26.6217 9.72806H59.2347C60.1822 9.72806 61.0394 10.815 61.4694 12.3162C60.7814 11.9492 60.0272 11.7454 59.2347 11.7454L5.76071 11.7444C4.85312 11.7444 3.99739 12.0197 3.23187 12.4941V8.63448C3.23337 6.15833 4.41467 3.98535 5.76071 3.98535L5.76187 3.98551ZM61.7653 57.7098C61.7653 59.5325 60.6314 61.0152 59.2364 61.0152H5.76244C4.36834 61.0152 3.2336 59.5326 3.2336 57.7098V19.035C3.2336 17.2123 4.36753 15.7296 5.76244 15.7296H59.2364C60.6305 15.7296 61.7653 17.2122 61.7653 19.035V57.7098Z" fill="#009DCA"/>
</svg>
