 <svg  fill="#009dca" version="1.1" xmlns="http://www.w3.org/2000/svg" xmlns:xlink="http://www.w3.org/1999/xlink" x="0px" y="0px" viewBox="0 0 1000 1000" enable-background="new 0 0 1000 1000" xml:space="preserve">
<g>
<path d="M760.8,516.9v-33.8H516.9V256.2h-33.8v226.9H239.2v33.8h243.9v226.9h33.8V516.9H760.8z"/>
<path d="M473.5,43.7L470.6,10C398,16.3,329.1,37.5,265.7,73.1l16.6,29.5C341.4,69.4,405.8,49.6,473.5,43.7z"/>
<path d="M248.9,118.1l-19.4-27.7c-59.7,41.7-108.8,94.6-145.9,157.1l29.1,17.3C147.4,206.4,193.2,157,248.9,118.1z"/>
<path d="M91.6,294.8l-30.7-14.3c-30.8,66-46.9,136.3-47.8,209l33.8,0.4C47.8,422,62.8,356.4,91.6,294.8z"/>
<path d="M43.7,526.5L10,529.4c6.3,72.6,27.5,141.5,63.1,204.9l29.5-16.6C69.4,658.6,49.6,594.2,43.7,526.5z"/>
<path d="M118.1,751.1l-27.7,19.4c41.7,59.7,94.6,108.8,157.1,145.9l17.3-29.1C206.4,852.6,157,806.8,118.1,751.1z"/>
<path d="M280.5,939.1c66,30.8,136.3,46.9,209,47.8l0.4-33.8c-67.9-0.8-133.5-15.8-195.1-44.6L280.5,939.1z"/>
<path d="M526.5,956.3l2.9,33.7c72.6-6.3,141.5-27.5,204.9-63.1l-16.6-29.5C658.6,930.6,594.2,950.4,526.5,956.3z"/>
<path d="M751.1,881.9l19.4,27.7c59.7-41.7,108.8-94.6,145.9-157.1l-29.1-17.3C852.6,793.6,806.8,843,751.1,881.9z"/>
<path d="M908.4,705.2l30.7,14.3c30.8-66,46.9-136.3,47.8-209l-33.8-0.4C952.2,578,937.2,643.6,908.4,705.2z"/>
<path d="M956.3,473.5l33.7-2.9c-6.3-72.6-27.5-141.5-63.1-204.9l-29.5,16.6C930.6,341.4,950.4,405.8,956.3,473.5z"/>
<path d="M881.9,248.9l27.7-19.4c-41.7-59.7-94.6-108.8-157.1-145.9l-17.3,29.1C793.6,147.4,843,193.2,881.9,248.9z"/>
<path d="M719.5,60.9c-66-30.8-136.3-46.9-209-47.8L510.1,47c67.9,0.8,133.5,15.8,195.1,44.6L719.5,60.9z"/>
</g>
</svg>