<svg width="69" height="69" viewBox="0 0 69 69" fill="none" xmlns="http://www.w3.org/2000/svg">
<path d="M34.1434 68.2859C33.6699 68.2859 33.2311 68.0419 32.983 67.6391L23.7551 52.7443H5.28549C2.37139 52.7443 0 50.3729 0 47.4588V5.28549C0 2.37139 2.37139 0 5.28549 0H62.9869C65.9091 0 68.2857 2.37139 68.2857 5.28549V47.4588C68.2857 50.3729 65.9091 52.7443 62.9869 52.7443H44.5191L35.3044 67.6391C35.055 68.0405 34.6162 68.2859 34.1427 68.2859H34.1434ZM5.28581 2.73162C3.87742 2.73162 2.73175 3.87726 2.73175 5.28567V47.459C2.73175 48.8673 3.8774 50.013 5.28581 50.013H24.5151C24.9885 50.013 25.4273 50.2571 25.6754 50.6599L34.1418 64.3264L42.5961 50.6599C42.8455 50.2584 43.2843 50.013 43.7578 50.013H62.987C64.4021 50.013 65.5544 48.8674 65.5544 47.459V5.28567C65.5544 3.87728 64.4021 2.73162 62.987 2.73162H5.28581Z" fill="#009DCA"/>
<path d="M49.086 42.6106C48.9487 42.6106 48.81 42.5892 48.6739 42.5466L38.5818 39.3576C38.127 39.2149 37.7802 38.8441 37.6669 38.38C37.5535 37.9172 37.6909 37.4277 38.0283 37.0903L44.9316 30.1858C45.2677 29.8483 45.7612 29.7136 46.2213 29.8243C46.6855 29.9377 47.0562 30.2845 47.199 30.7406L50.3879 40.8341C50.5426 41.3196 50.4119 41.8504 50.0518 42.2105C49.7917 42.4705 49.4423 42.6106 49.0862 42.6106H49.086ZM41.5493 37.4318L46.9922 39.1509L45.2731 33.708L41.5493 37.4318Z" fill="#009DCA"/>
<path d="M38.9934 39.4216C38.6306 39.4216 38.2839 39.2776 38.0278 39.0215L23.4904 24.4842C22.957 23.9507 22.957 23.0865 23.4904 22.5531L30.395 15.6485C30.9071 15.1364 31.814 15.1364 32.3261 15.6485L46.8621 30.1859C47.3956 30.7193 47.3956 31.5836 46.8621 32.117L39.9587 39.0215C39.7027 39.2776 39.3559 39.4216 38.9931 39.4216H38.9934ZM26.3872 23.5186L38.9934 36.1248L43.9654 31.1514L31.3606 18.5452L26.3872 23.5186Z" fill="#009DCA"/>
<path d="M24.457 24.8853C24.1076 24.8853 23.7581 24.7519 23.4914 24.4852L18.4739 19.4677C17.3163 18.3101 17.3163 16.4281 18.4739 15.2705L22.8485 10.896C24.1102 9.63429 26.3108 9.63429 27.5725 10.896L32.3272 15.6493C32.5833 15.9054 32.7274 16.2522 32.7274 16.6149C32.7274 16.9777 32.5833 17.3245 32.3272 17.5805L25.4227 24.4851C25.156 24.7518 24.8065 24.8852 24.4571 24.8852L24.457 24.8853ZM25.2106 12.6499C25.0545 12.6499 24.8985 12.7085 24.7798 12.8272L20.4052 17.2018C20.3132 17.2938 20.3132 17.4445 20.4052 17.5366L24.457 21.5883L29.4304 16.6149L25.6414 12.8271C25.5227 12.7084 25.3666 12.6497 25.2106 12.6497L25.2106 12.6499Z" fill="#009DCA"/>
</svg>
