<svg width="500" height="500" viewBox="0 0 500 500" fill="none" xmlns="http://www.w3.org/2000/svg">
<path d="M250 500C316.305 500 379.892 473.66 426.777 426.777C473.662 379.894 500 316.308 500 250C500 183.692 473.66 120.108 426.777 73.2228C379.894 26.3379 316.308 0 250 0C183.692 0 120.108 26.3399 73.2228 73.2228C26.3379 120.106 0 183.692 0 250C0.0743061 316.281 26.437 379.822 73.3049 426.687C120.173 473.552 183.714 499.918 249.992 499.992L250 500ZM250 33.6434C307.379 33.6434 362.412 56.4401 402.989 97.0147C443.567 137.589 466.361 192.623 466.361 250.004C466.361 307.385 443.564 362.416 402.989 402.993C362.415 443.571 307.381 466.365 250 466.365C192.619 466.365 137.588 443.568 97.0107 402.993C56.4331 362.419 33.6394 307.385 33.6394 250.004C33.702 192.64 56.5142 137.642 97.0768 97.0848C137.636 56.5213 192.634 33.7095 249.996 33.6474L250 33.6434Z" fill="black"/>
<path d="M207.61 286.62C209.006 288.912 210.927 290.832 213.219 292.228L353.042 376.327C357.364 378.943 362.636 379.479 367.395 377.781C372.155 376.088 375.901 372.342 377.595 367.582C379.292 362.822 378.757 357.55 376.14 353.229L292.042 213.405C290.646 211.113 288.725 209.193 286.434 207.797L146.61 123.698C142.288 121.082 137.017 120.546 132.257 122.243C127.497 123.937 123.751 127.683 122.057 132.443C120.36 137.203 120.895 142.475 123.512 146.796L207.61 286.62ZM265.694 234.313L312.848 312.803L234.358 265.649L187.204 187.159L265.694 234.313Z" fill="black"/>
<path d="M250 107.71C256.891 107.726 263.504 105 268.385 100.135C273.265 95.2698 276.011 88.6605 276.015 81.7694C276.018 74.8785 273.285 68.2696 268.412 63.3959C263.539 58.5222 256.929 55.7893 250.038 55.7932C243.147 55.7971 236.539 58.5425 231.673 63.4232C226.808 68.3039 224.082 74.9167 224.098 81.8077C224.113 88.6713 226.847 95.2535 231.7 100.106C236.554 104.959 243.136 107.693 249.999 107.709L250 107.71ZM250 74.0688V74.0727C253.133 74.0492 255.972 75.9186 257.188 78.8087C258.404 81.6988 257.755 85.0348 255.546 87.26C253.34 89.4854 250.008 90.154 247.11 88.9612C244.212 87.7684 242.319 84.9409 242.319 81.8083C242.319 77.5573 245.749 74.104 250 74.0727V74.0688Z" fill="black"/>
<path d="M250 392.244C243.117 392.244 236.511 394.981 231.647 399.85C226.778 404.715 224.04 411.321 224.04 418.204C224.04 425.087 226.778 431.693 231.647 436.557C236.512 441.426 243.117 444.164 250 444.164C256.883 444.164 263.489 441.426 268.354 436.557C273.223 431.692 275.96 425.087 275.96 418.204C275.96 411.321 273.223 404.715 268.354 399.85C263.488 394.981 256.883 392.244 250 392.244ZM250 425.885C246.867 425.885 244.04 423.992 242.847 421.094C241.654 418.196 242.323 414.864 244.548 412.659C246.774 410.449 250.11 409.8 253 411.016C255.89 412.232 257.759 415.072 257.736 418.204C257.704 422.455 254.251 425.885 250 425.885Z" fill="black"/>
<path d="M418.197 275.907C425.088 275.923 431.701 273.197 436.582 268.332C441.462 263.467 444.208 256.858 444.212 249.967C444.216 243.076 441.482 236.467 436.609 231.593C431.736 226.719 425.127 223.986 418.236 223.99C411.345 223.994 404.736 226.74 399.87 231.62C395.005 236.501 392.279 243.114 392.295 250.005C392.31 256.868 395.044 263.451 399.897 268.303C404.751 273.156 411.333 275.89 418.196 275.906L418.197 275.907ZM418.197 242.266V242.27C421.33 242.246 424.169 244.116 425.385 247.006C426.601 249.896 425.952 253.232 423.743 255.457C421.537 257.683 418.205 258.351 415.307 257.158C412.409 255.966 410.516 253.138 410.516 250.005C410.516 245.754 413.946 242.301 418.197 242.27V242.266Z" fill="black"/>
<path d="M107.763 250.007C107.775 243.12 105.053 236.507 100.192 231.63C95.3307 226.75 88.7295 224.004 81.8424 223.993C74.9515 223.985 68.3426 226.711 63.4689 231.576C58.5921 236.441 55.8506 243.046 55.8427 249.933C55.8388 256.82 58.5725 263.429 63.4415 268.299C68.3105 273.172 74.9159 275.909 81.803 275.909C88.6782 275.909 95.2718 273.183 100.136 268.326C105.005 263.473 107.747 256.883 107.763 250.008L107.763 250.007ZM81.8029 257.688C78.6703 257.688 75.8428 255.795 74.65 252.897C73.4572 249.999 74.1259 246.667 76.3512 244.461C78.5765 242.252 81.9124 241.603 84.8025 242.819C87.6926 244.035 89.562 246.874 89.5385 250.007C89.5072 254.258 86.054 257.688 81.8029 257.688Z" fill="black"/>
</svg>
