<svg width="532" height="447" viewBox="0 0 532 447" fill="none" xmlns="http://www.w3.org/2000/svg">
<path d="M528.5 224.979C513.379 204.819 475.301 161.698 416.5 129.217L361.621 184.096C370.02 199.217 374.5 217.135 374.5 235.616C374.5 295.538 326.34 343.696 266.42 343.696C247.94 343.696 230.022 339.215 214.9 330.817L177.939 367.778C204.818 375.618 233.939 380.657 266.419 380.657C413.139 380.657 502.739 279.857 529.059 246.257C532.977 240.097 532.977 231.14 528.497 224.98L528.5 224.979Z" fill="#0E0D0D"/>
<path d="M265.86 314.019C308.981 314.019 344.258 278.738 344.258 235.621C344.258 225.543 342.02 215.461 338.657 206.5L236.737 308.42C245.702 311.779 255.784 314.018 265.862 314.018L265.86 314.019Z" fill="#0E0D0D"/>
<path d="M472.5 5.4609C465.219 -1.8203 453.461 -1.8203 446.18 5.4609L349.86 101.781C324.661 94.4997 296.661 90.0189 266.419 90.0189C119.699 90.0189 30.0993 190.819 3.77933 224.419C-1.25978 230.579 -1.25978 239.54 3.77933 245.7C18.9003 265.302 55.2993 307.302 111.859 339.22L36.2573 414.822C28.9761 422.103 28.9761 433.861 36.2573 441.142C40.1792 445.064 44.6557 446.743 49.6983 446.743C54.7374 446.743 59.2178 445.064 63.1393 441.142L473.059 31.2219C479.782 25.0617 479.782 12.7419 472.501 5.4639L472.5 5.4609ZM157.78 235.621C157.78 175.699 206.499 127.541 265.86 127.541C282.661 127.541 298.899 131.463 313.462 138.74L290.501 161.701C282.661 159.463 274.821 157.779 265.86 157.779C222.739 157.779 187.462 193.06 187.462 236.177C187.462 244.575 189.142 252.978 191.384 260.818L168.423 283.779C161.701 268.658 157.782 252.416 157.782 235.619L157.78 235.621Z" fill="#0E0D0D"/>
</svg>
