<svg width="500" height="327" viewBox="0 0 500 327" fill="none" xmlns="http://www.w3.org/2000/svg">
<path d="M249.881 233.331C288.541 233.331 319.881 201.991 319.881 163.331C319.881 124.671 288.541 93.3311 249.881 93.3311C211.221 93.3311 179.881 124.671 179.881 163.331C179.881 201.991 211.221 233.331 249.881 233.331Z" fill="#121211"/>
<path fill-rule="evenodd" clip-rule="evenodd" d="M4.9512 182.441C-1.6504 170.554 -1.6504 156.117 4.9512 144.23C52.7362 58.21 144.511 0 249.891 0C355.271 0 447.041 58.207 494.821 144.23C501.427 156.117 501.427 170.554 494.821 182.441C447.04 268.461 355.261 326.671 249.891 326.671C144.511 326.671 52.7312 268.464 4.9512 182.441ZM366.561 163.336C366.561 227.77 314.327 280.006 249.901 280.006C185.467 280.006 133.231 227.772 133.231 163.336C133.231 98.9 185.465 46.666 249.901 46.666C314.331 46.666 366.561 98.9 366.561 163.336Z" fill="#121211"/>
</svg>
