<?xml version="1.0" encoding="UTF-8"?>
<svg width="700pt" height="700pt" version="1.1" viewBox="0 0 700 700" xmlns="http://www.w3.org/2000/svg">
 <g>
  <path d="m140 490h210c115.98 0 210-94.02 210-210s-94.02-210-210-210-210 94.02-210 210zm210-455c135.31 0 245 109.69 245 245s-109.69 245-245 245h-245v-245c0-135.31 109.69-245 245-245z"/>
  <path d="m192.5 227.5c-9.6641 0-17.5-7.8359-17.5-17.5s7.8359-17.5 17.5-17.5h140c9.6641 0 17.5 7.8359 17.5 17.5s-7.8359 17.5-17.5 17.5z"/>
  <path d="m192.5 315c-9.6641 0-17.5-7.8359-17.5-17.5s7.8359-17.5 17.5-17.5h297.5c9.6641 0 17.5 7.8359 17.5 17.5s-7.8359 17.5-17.5 17.5z"/>
  <path d="m192.5 402.5c-9.6641 0-17.5-7.8359-17.5-17.5s7.8359-17.5 17.5-17.5h297.5c9.6641 0 17.5 7.8359 17.5 17.5s-7.8359 17.5-17.5 17.5z"/>
 </g>
</svg>
