<svg width="423" height="423" viewBox="0 0 423 423" fill="none" xmlns="http://www.w3.org/2000/svg">
<path d="M211.12 0C94.64 0 0 94.641 0 211.12C0 327.6 94.641 422.24 211.12 422.24C327.599 422.24 422.24 327.599 422.24 211.12C421.677 94.64 327.599 0 211.12 0ZM204.96 357.84C171.921 357.84 171.921 306.879 204.96 306.879C237.999 306.32 237.999 357.84 204.96 357.84ZM255.921 208.32C253.12 211.121 249.761 213.359 246.96 216.16C241.358 220.64 236.319 225.121 231.839 230.16C222.319 241.359 222.319 244.719 222.878 261.519V271.597C222.878 282.238 214.48 291.199 203.276 291.199C192.635 291.199 183.674 282.8 183.674 271.597V262.636C183.115 243.597 182.553 226.796 202.154 204.398C208.314 197.117 215.033 191.519 221.756 186.476C224.557 184.238 227.358 181.995 229.596 179.757C242.475 168.558 253.674 149.519 246.955 130.476C241.353 113.675 225.674 103.597 207.193 104.714C199.353 105.273 193.193 106.952 188.154 109.195C174.713 115.913 172.474 133.836 173.595 147.836C174.153 158.477 165.755 167.996 155.115 168.555C143.916 169.113 134.955 160.715 134.396 150.075C132.158 113.114 145.037 85.6766 171.357 73.3556C180.318 68.8751 190.959 66.6368 203.837 65.5158C240.235 62.1564 272.716 83.4378 283.915 117.594C294.556 148.399 283.356 183.121 255.919 208.321L255.921 208.32Z" fill="#2F2C2C"/>
</svg>
