<svg width="449" height="437" viewBox="0 0 449 437" fill="none" xmlns="http://www.w3.org/2000/svg">
<path d="M387.95 0.0420569C380.61 0.11237 373.438 2.65536 367.825 8.26476L173.935 202.145C169.829 206.047 168.474 209.535 166.412 214.395C164.279 219.418 162.322 225.457 160.638 232.418C157.267 246.344 155.236 263.469 158.189 280.539C158.912 285.101 162.74 289.004 167.287 289.812C184.353 292.765 201.482 290.734 215.408 287.363C222.369 285.675 228.584 283.547 233.607 281.414C238.466 279.351 241.954 278.172 245.857 274.066C245.989 273.925 246.075 273.855 246.208 273.718L439.748 80.1884C452.576 67.3604 449.58 46.4504 436.772 33.6414C429.307 26.1766 421.838 18.7074 414.374 11.2434C407.971 4.84109 399.515 0.802395 391.101 0.0443953C390.05 -0.0493547 388.999 0.0326763 387.952 0.0443953L387.95 0.0420569ZM387.95 22.4401C388.567 22.4049 389.212 22.358 389.876 22.4401C392.536 22.7721 395.536 24.0768 398.45 26.9909C405.997 34.5261 413.309 42.0259 420.848 49.5649C426.68 55.3969 426.293 61.7919 423.825 64.2639L408.774 79.3109L368.528 39.0649L383.579 24.0179C384.504 23.0921 386.098 22.5491 387.954 22.4437L387.95 22.4401ZM352.778 54.9871L392.852 95.0571L229.942 257.967C229.688 258.022 227.622 259.6 224.868 260.768C221.196 262.326 216.016 264.076 210.169 265.491C201.04 267.701 190.31 268.479 179.896 267.94C179.38 257.577 180.146 246.745 182.345 237.667C183.759 231.819 185.513 226.815 187.072 223.144C188.24 220.39 189.833 218.195 189.872 217.894L352.778 54.9871ZM50.398 78.4361C22.671 78.4322 0 101.104 0 128.827V386.397C0 414.124 22.672 436.792 50.398 436.792H307.978C335.705 436.792 358.376 414.124 358.376 386.397V212.817C358.458 206.899 353.095 201.458 347.177 201.458C341.259 201.458 335.896 206.899 335.978 212.817V386.397C335.978 402.1 323.685 414.393 307.978 414.393H50.398C34.695 414.393 22.398 402.1 22.398 386.397V128.827C22.398 113.124 34.691 100.831 50.398 100.831H246.388C252.306 100.913 257.747 95.5499 257.747 89.6321C257.747 83.7143 252.306 78.3511 246.388 78.4331L50.398 78.4361Z" fill="black"/>
</svg>
