<svg width="500" height="500" viewBox="0 0 500 500" fill="none" xmlns="http://www.w3.org/2000/svg">
<path d="M192.673 236.589H307.324C317.146 236.589 325.182 244.742 325.182 254.705C325.182 264.669 317.146 272.821 307.324 272.821H192.673C182.851 272.821 174.814 264.669 174.814 254.705C174.814 244.742 182.851 236.589 192.673 236.589ZM498.766 244.924C496.087 251.806 489.478 256.335 482.16 256.335H459.657V463.768H468.407C478.229 463.768 486.266 471.92 486.266 481.884C486.266 491.848 478.229 500 468.407 500H31.5898C21.7677 500 13.7314 491.848 13.7314 481.884C13.7314 471.92 21.7677 463.768 31.5898 463.768H40.3397V256.335H17.837C10.5142 256.335 3.90947 251.806 1.23071 244.924C-1.44806 238.041 0.337786 230.066 5.69532 224.996L237.855 4.89194C244.64 -1.63065 255.354 -1.63065 262.323 4.89194L348.044 86.0495L348.04 46.0121C348.04 36.0483 356.076 27.8961 365.898 27.8961H450.192C460.014 27.8961 468.05 36.0483 468.05 46.0121V199.998L494.479 224.996C499.657 230.071 501.443 238.042 498.764 244.928L498.766 244.924ZM383.574 119.923L432.151 166.119V64.124H383.574V119.923ZM308.748 341.849C308.748 338.95 306.428 336.597 303.57 336.597H196.42C193.562 336.597 191.242 338.95 191.242 341.849V463.765H308.577L308.573 341.849H308.748ZM437.513 220.648L249.999 42.9355L62.4858 220.648C70.1632 222.642 75.8796 229.706 75.8796 238.223V463.772H155.529V341.857C155.529 319.03 173.921 300.372 196.424 300.372H303.575C326.077 300.372 344.469 319.03 344.469 341.857V463.772H424.119V238.223C423.94 229.889 429.656 222.642 437.513 220.648Z" fill="black"/>
<path d="M192.673 236.589H307.324C317.146 236.589 325.182 244.742 325.182 254.705C325.182 264.669 317.146 272.821 307.324 272.821H192.673C182.851 272.821 174.814 264.669 174.814 254.705C174.814 244.742 182.851 236.589 192.673 236.589ZM498.766 244.924C496.087 251.806 489.478 256.335 482.16 256.335H459.657V463.768H468.407C478.229 463.768 486.266 471.92 486.266 481.884C486.266 491.848 478.229 500 468.407 500H31.5898C21.7677 500 13.7314 491.848 13.7314 481.884C13.7314 471.92 21.7677 463.768 31.5898 463.768H40.3397V256.335H17.837C10.5142 256.335 3.90947 251.806 1.23071 244.924C-1.44806 238.041 0.337786 230.066 5.69532 224.996L237.855 4.89194C244.64 -1.63065 255.354 -1.63065 262.323 4.89194L348.044 86.0495L348.04 46.0121C348.04 36.0483 356.076 27.8961 365.898 27.8961H450.192C460.014 27.8961 468.05 36.0483 468.05 46.0121V199.998L494.479 224.996C499.657 230.071 501.443 238.042 498.764 244.928L498.766 244.924ZM383.574 119.923L432.151 166.119V64.124H383.574V119.923ZM308.748 341.849C308.748 338.95 306.428 336.597 303.57 336.597H196.42C193.562 336.597 191.242 338.95 191.242 341.849V463.765H308.577L308.573 341.849H308.748ZM437.513 220.648L249.999 42.9355L62.4858 220.648C70.1632 222.642 75.8796 229.706 75.8796 238.223V463.772H155.529V341.857C155.529 319.03 173.921 300.372 196.424 300.372H303.575C326.077 300.372 344.469 319.03 344.469 341.857V463.772H424.119V238.223C423.94 229.889 429.656 222.642 437.513 220.648Z" stroke="black"/>
</svg>
