<svg width="382" height="476" viewBox="0 0 382 476" fill="none" xmlns="http://www.w3.org/2000/svg">
<path fill-rule="evenodd" clip-rule="evenodd" d="M189.652 0C122.613 0 68.222 54.273 68.222 121.21V186.124H50.449C22.781 186.124 0 208.78 0 236.436V425.686C0 453.342 22.781 475.998 50.449 475.998H331.329C358.997 475.998 381.669 453.342 381.669 425.686V236.436C381.669 208.78 358.997 186.124 331.329 186.124H311.177V121.21C311.177 54.269 256.7 0 189.657 0H189.652ZM189.652 28C241.699 28 283.168 69.332 283.168 121.215V186.129H96.218V121.215C96.218 69.332 137.605 28 189.652 28V28ZM50.442 214.13H331.322C343.994 214.13 353.662 223.845 353.662 236.442V425.692C353.662 438.29 343.994 448.004 331.322 448.004H50.442C37.77 448.004 27.993 438.289 27.993 425.692V236.442C27.993 223.844 37.7703 214.13 50.442 214.13V214.13ZM190.882 263.732C164.101 263.732 141.991 285.74 141.991 312.513C141.991 334.415 156.784 353.048 176.827 359.107V384.455C176.843 388.17 178.331 391.724 180.968 394.338C183.6 396.955 187.167 398.416 190.882 398.4C198.569 398.369 204.796 392.142 204.827 384.455V359.135C224.889 353.104 239.663 334.447 239.663 312.514C239.663 285.741 217.663 263.733 190.882 263.733L190.882 263.732ZM190.882 291.732C202.566 291.732 211.663 300.904 211.663 312.513C211.663 324.122 202.565 333.185 190.882 333.185C179.198 333.185 169.991 324.123 169.991 312.513C169.991 300.904 179.198 291.732 190.882 291.732Z" fill="black"/>
</svg>
