<svg width="65" height="65" viewBox="0 0 65 65" fill="none" xmlns="http://www.w3.org/2000/svg">
<path d="M2.55997 2.55994L2.55998 2.55993C4.16416 0.9552 6.33995 0.0527788 8.60895 0.05L21.7976 0.05C24.0666 0.0526752 26.2424 0.95517 27.8465 2.55992L27.8465 2.55994C29.4513 4.1641 30.3537 6.33914 30.3565 8.6088V21.7972C30.3538 24.0661 29.4513 26.2413 27.8465 27.8461C26.2423 29.4501 24.0665 30.3532 21.7976 30.356H8.60895C6.33996 30.3533 4.16408 29.4501 2.55998 27.8461C0.955211 26.2412 0.052779 24.0661 0.05 21.7972L0.05 8.60877C0.0526752 6.33912 0.955185 4.164 2.55997 2.55994ZM24.6001 24.5994L24.6001 24.5994C25.3432 23.8555 25.7607 22.8478 25.7607 21.7969V8.60839C25.7607 7.55673 25.3432 6.54897 24.6001 5.80589C23.8569 5.06282 22.8485 4.64528 21.7976 4.64528H8.60885C7.55788 4.64528 6.54941 5.0628 5.80631 5.80589L5.84167 5.84125L5.80631 5.80589C5.06323 6.54905 4.64569 7.55676 4.64569 8.60839V21.7969C4.64569 22.8479 5.06322 23.8556 5.80629 24.5994L5.80631 24.5994C6.54948 25.3425 7.55791 25.76 8.60885 25.76H21.7976C22.8486 25.76 23.857 25.3425 24.6001 24.5994ZM2.55998 62.4401L2.52462 62.4754L2.55997 62.4401C0.955214 60.8359 0.052779 58.6609 0.05 56.3912L0.05 43.2028C0.0526677 40.9339 0.955175 38.7587 2.55997 37.1539C4.16417 35.5499 6.33996 34.6468 8.60895 34.644H21.7976C24.0665 34.6467 26.2424 35.5499 27.8465 37.1539C29.4513 38.7588 30.3537 40.9339 30.3565 43.2028V56.3912C30.3538 58.6609 29.4513 60.836 27.8465 62.4401L27.8819 62.4754L27.8465 62.4401C26.2423 64.0448 24.0665 64.9472 21.7976 64.95H8.60895C6.33995 64.9473 4.16407 64.0448 2.55998 62.4401ZM5.80631 40.3999L5.84167 40.4352L5.80629 40.3999C5.06324 41.1438 4.64569 42.1515 4.64569 43.2024V56.3909C4.64569 57.4426 5.06321 58.4503 5.80631 59.1934L5.84167 59.158L5.80631 59.1934C6.54948 59.9365 7.55791 60.354 8.60885 60.354H21.7976C22.8486 60.354 23.857 59.9365 24.6001 59.1934C25.3432 58.4502 25.7607 57.4425 25.7607 56.3909V43.2024C25.7607 42.1514 25.3432 41.1437 24.6001 40.3999L24.5648 40.4352L24.6001 40.3999C23.8569 39.6568 22.8485 39.2393 21.7976 39.2393H8.60885C7.55788 39.2393 6.54941 39.6568 5.80631 40.3999ZM62.44 62.4401L62.4754 62.4754L62.44 62.4401C60.8358 64.0448 58.6608 64.9472 56.3911 64.95H43.2039C40.9349 64.948 38.759 64.0455 37.1549 62.4408C35.5501 60.8359 34.6477 58.6609 34.6449 56.3912V43.2028C34.6476 40.9339 35.5501 38.758 37.1549 37.1532C38.7591 35.5492 40.9349 34.6468 43.2039 34.644H56.3897H56.3911C58.6608 34.6467 60.8359 35.5499 62.44 37.1539C64.0448 38.7588 64.9472 40.9339 64.95 43.2027V56.3912C64.9473 58.6609 64.0448 60.836 62.44 62.4401ZM59.1936 40.3999L59.1583 40.4352L59.1936 40.3999C58.4505 39.6568 57.4427 39.2393 56.3911 39.2393H43.2038C42.1528 39.2393 41.1451 39.6568 40.402 40.3999C39.6582 41.1438 39.2406 42.1515 39.2406 43.2024V56.3909C39.2406 57.4426 39.6582 58.4503 40.402 59.1934C41.1451 59.9365 42.1528 60.354 43.2038 60.354H56.3897C57.4406 60.354 58.4491 59.9365 59.1922 59.1934C59.9353 58.4502 60.3528 57.4425 60.3528 56.3909L60.3543 43.2024C60.3543 42.1514 59.9367 41.1437 59.1936 40.3999ZM37.8945 27.3994L37.8944 27.3994C37.5393 27.0449 37.3831 26.537 37.4778 26.0439L37.4801 26.0319L38.8368 19.0155L49.2463 8.60611L56.6888 16.0485L46.2792 26.4425L39.2508 27.8168C38.7576 27.9108 38.2496 27.7545 37.8945 27.3994ZM60.0774 12.6593L52.6349 5.21694L54.6659 3.18602L54.7046 3.14729C55.2789 2.59321 56.0458 2.2825 56.845 2.2825C57.6626 2.2825 58.4464 2.60773 59.0248 3.18602L62.023 6.18425H62.0221L62.1077 6.26965C62.6867 6.8472 63.0112 7.63106 63.0112 8.44864C63.0112 9.26622 62.6867 10.0508 62.1077 10.6284L62.1077 10.6284L60.0774 12.6593Z" fill="#009DCA" stroke="black" stroke-width="0.1"/>
</svg>
