<svg width="700" height="600" viewBox="0 0 700 600" fill="none" xmlns="http://www.w3.org/2000/svg">
<path d="M126.996 259.836C126.996 385.564 98.8354 423.981 81.665 435.157C67.2394 444.935 59 461.701 59 478.462C59 507.798 81.665 530.151 109.826 530.151H226.583C234.824 569.968 268.479 600 309 600C349.521 600 383.176 569.968 391.417 530.151H508.174C536.335 530.151 559 507.101 559 478.462C559 461 550.76 444.936 536.335 435.157C519.165 423.283 491.004 384.866 491.004 259.836C491.004 142.493 420.947 95.6916 369.436 76.134C370.121 71.9438 370.811 67.0521 370.811 62.8614C370.811 27.937 343.341 0 309 0C274.659 0 247.189 27.937 247.189 62.8614C247.189 67.0516 247.874 71.9433 248.564 76.134C197.048 94.9944 126.996 142.494 126.996 259.836H126.996ZM309.002 572.759C283.591 572.759 261.611 555.297 254.056 530.847H363.949C356.394 555.297 334.413 572.759 309.002 572.759ZM531.531 479.158C531.531 492.43 520.541 503.607 507.49 503.607H110.51C97.4593 503.607 86.469 492.43 86.469 479.158C86.469 472.171 89.2142 465.885 94.7093 460.998H524.656C528.781 465.89 531.531 472.175 531.531 479.158H531.531ZM309.002 27.9345C328.233 27.9345 343.343 43.3013 343.343 62.8589C343.343 64.954 343.343 66.3524 342.658 68.4475C314.497 62.1622 288.402 65.6556 274.662 68.4475C274.662 66.3524 273.977 64.954 273.977 62.8589C274.662 43.3013 289.773 27.9345 309.003 27.9345H309.002ZM272.601 97.7833H273.286C273.286 97.7833 288.396 92.8916 309.688 92.8916C320.678 92.8916 332.353 94.2899 345.403 98.4801H346.088C399.66 113.847 464.221 154.36 464.221 260.529C464.221 341.555 475.211 399.528 497.876 433.754H120.814C142.794 398.83 154.469 340.855 154.469 260.529C154.469 153.661 218.34 113.148 272.601 97.7816L272.601 97.7833Z" fill="black"/>
<path d="M197.051 237.485H199.112C205.982 237.485 211.472 232.593 212.847 225.611C218.342 184.402 260.238 159.256 260.923 159.256C267.793 155.763 269.853 146.686 265.733 140.396C262.298 133.409 253.372 131.314 247.187 135.504C245.127 136.902 192.931 167.637 185.376 222.815C184.691 229.1 189.496 236.087 197.052 237.485L197.051 237.485Z" fill="black"/>
<circle cx="565" cy="97" r="75" fill="#FF0404"/>
</svg>
