<svg width="700" height="600" viewBox="0 0 700 600" fill="none" xmlns="http://www.w3.org/2000/svg">
<path d="M167.996 259.836C167.996 385.564 139.835 423.981 122.665 435.157C108.239 444.935 100 461.701 100 478.462C100 507.798 122.665 530.151 150.826 530.151H267.583C275.824 569.968 309.479 600 350 600C390.521 600 424.176 569.968 432.417 530.151H549.174C577.335 530.151 600 507.101 600 478.462C600 461 591.76 444.936 577.335 435.157C560.165 423.283 532.004 384.866 532.004 259.836C532.004 142.493 461.947 95.6916 410.436 76.134C411.121 71.9438 411.811 67.0521 411.811 62.8614C411.811 27.937 384.341 0 350 0C315.659 0 288.189 27.937 288.189 62.8614C288.189 67.0516 288.874 71.9433 289.564 76.134C238.048 94.9944 167.996 142.494 167.996 259.836H167.996ZM350.002 572.759C324.591 572.759 302.611 555.297 295.056 530.847H404.949C397.394 555.297 375.413 572.759 350.002 572.759ZM572.531 479.158C572.531 492.43 561.541 503.607 548.49 503.607H151.51C138.459 503.607 127.469 492.43 127.469 479.158C127.469 472.171 130.214 465.885 135.709 460.998H565.656C569.781 465.89 572.531 472.175 572.531 479.158H572.531ZM350.002 27.9345C369.233 27.9345 384.343 43.3013 384.343 62.8589C384.343 64.954 384.343 66.3524 383.658 68.4475C355.497 62.1622 329.402 65.6556 315.662 68.4475C315.662 66.3524 314.977 64.954 314.977 62.8589C315.662 43.3013 330.773 27.9345 350.003 27.9345H350.002ZM313.601 97.7833H314.286C314.286 97.7833 329.396 92.8916 350.688 92.8916C361.678 92.8916 373.353 94.2899 386.403 98.4801H387.088C440.66 113.847 505.221 154.36 505.221 260.529C505.221 341.555 516.211 399.528 538.876 433.754H161.814C183.794 398.83 195.469 340.855 195.469 260.529C195.469 153.661 259.34 113.148 313.601 97.7816L313.601 97.7833Z" fill="black"/>
<path d="M238.051 237.485H240.112C246.982 237.485 252.472 232.593 253.847 225.611C259.342 184.402 301.238 159.256 301.923 159.256C308.793 155.763 310.853 146.686 306.733 140.396C303.298 133.409 294.372 131.314 288.187 135.504C286.127 136.902 233.931 167.637 226.376 222.815C225.691 229.1 230.496 236.087 238.052 237.485L238.051 237.485Z" fill="black"/>
</svg>
