<svg width="389" height="529" viewBox="0 0 389 529" fill="none" xmlns="http://www.w3.org/2000/svg">
<path d="M351.527 517.189H37.027C22.672 517.189 11 505.517 11 491.169V250.359C11 236.004 22.672 224.332 37.027 224.332H351.527C365.871 224.332 377.547 236.004 377.547 250.359V491.169C377.543 505.517 365.871 517.189 351.527 517.189ZM37.027 235.099C28.6129 235.099 21.765 241.947 21.765 250.361V491.171C21.765 499.585 28.6127 506.421 37.027 506.421H351.527C359.941 506.421 366.777 499.585 366.777 491.171V250.351C366.777 241.937 359.941 235.089 351.527 235.089L37.027 235.099Z" fill="black" stroke="black" stroke-width="22"/>
<path d="M76.0274 235.099C73.9962 235.099 72.0507 233.942 71.1484 231.985L52.7655 192.387C22.4885 127.141 48.1599 50.7073 109.988 22.0173C139.992 8.08333 173.929 7.34533 205.523 19.9235C237.011 32.4585 262.41 56.7325 277.046 88.2945L295.429 127.893C296.679 130.596 295.515 133.791 292.82 135.045C290.117 136.318 286.91 135.131 285.668 132.435L267.285 92.8304C253.801 63.7834 230.457 41.4434 201.535 29.9284C172.73 18.4554 141.808 19.1164 114.531 31.78C58.0777 57.979 34.7498 127.999 62.5268 187.86L80.9098 227.446C82.1598 230.149 80.9957 233.344 78.3004 234.598C77.5621 234.938 76.7965 235.098 76.027 235.098L76.0274 235.099Z" fill="black" stroke="black" stroke-width="22"/>
<path d="M194.277 390.148C175.125 390.148 159.55 374.574 159.55 355.421C159.55 336.269 175.124 320.694 194.277 320.694C213.43 320.694 229.004 336.268 229.004 355.421C229.004 374.573 213.43 390.148 194.277 390.148ZM194.277 331.464C181.066 331.464 170.32 342.214 170.32 355.421C170.32 368.632 181.07 379.378 194.277 379.378C207.488 379.378 218.234 368.628 218.234 355.421C218.234 342.214 207.488 331.464 194.277 331.464Z" fill="black" stroke="black" stroke-width="22"/>
<path d="M194.237 445.438C191.261 445.438 188.854 443.028 188.854 440.056V384.771C188.854 381.794 191.265 379.388 194.237 379.388C197.214 379.388 199.62 381.798 199.62 384.771V440.056C199.62 443.028 197.21 445.438 194.237 445.438V445.438Z" fill="black" stroke="black" stroke-width="22"/>
</svg>
