<svg width="505" height="283" viewBox="0 0 505 283" fill="none" xmlns="http://www.w3.org/2000/svg">
<path d="M98.3789 184.63C132.969 184.63 161.106 156.489 161.106 121.9C161.106 87.3109 132.965 59.1729 98.3789 59.1729C63.7969 59.1729 35.6489 87.3099 35.6489 121.9C35.6489 156.49 63.7899 184.63 98.3789 184.63V184.63ZM98.3789 85.5679C118.414 85.5679 134.711 101.865 134.711 121.9C134.711 141.935 118.414 158.232 98.3789 158.232C78.3439 158.232 62.0469 141.931 62.0469 121.9C62.0469 101.869 78.3439 85.5679 98.3789 85.5679Z" fill="black"/>
<path d="M26.3991 276.94C26.3991 249.987 48.3251 228.065 75.2741 228.065H121.481C122.864 228.065 124.235 228.119 125.59 228.237C129.415 228.569 133.212 227.283 135.988 224.733C138.692 222.24 140.188 218.834 140.188 215.147C140.188 208.416 135.035 202.643 128.45 202.01C126.153 201.791 123.829 201.674 121.477 201.674H75.27C33.77 201.662 0 235.432 0 276.94V282.366H26.398L26.3991 276.94Z" fill="black"/>
<path d="M144.869 282.36H171.267V249.864C171.267 219.399 196.052 194.614 226.521 194.614H277.474C307.939 194.614 332.728 219.399 332.728 249.864V282.36H359.126V249.864C359.126 222.305 345.29 196.774 322.11 181.579C308.782 172.837 293.348 168.216 277.477 168.216H226.524C201.305 168.216 177.872 179.696 162.223 199.712C150.871 214.232 144.875 231.575 144.875 249.864L144.879 282.36H144.869Z" fill="black"/>
<path d="M428.729 201.66H382.522C381.229 201.66 379.948 201.699 378.671 201.766C371.553 202.156 365.976 207.965 365.976 214.993C365.976 218.622 367.483 222.122 370.112 224.602C372.761 227.094 376.226 228.344 379.835 228.137C380.726 228.083 381.62 228.059 382.522 228.059H428.729C455.682 228.059 477.604 249.985 477.604 276.934V282.36L504.002 282.364V276.938C504.002 235.43 470.232 201.661 428.729 201.661L428.729 201.66Z" fill="black"/>
<path d="M405.619 184.63C440.209 184.63 468.349 156.489 468.349 121.9C468.349 87.3109 440.208 59.1729 405.619 59.1729C371.025 59.1729 342.885 87.3099 342.885 121.9C342.885 156.49 371.033 184.63 405.619 184.63ZM405.619 85.5679C425.654 85.5679 441.951 101.865 441.951 121.9C441.951 141.935 425.65 158.232 405.619 158.232C385.588 158.232 369.287 141.931 369.287 121.9C369.283 101.869 385.588 85.5679 405.619 85.5679Z" fill="black"/>
<path d="M251.999 157.82C295.507 157.82 330.909 122.422 330.909 78.91C330.909 35.398 295.511 0 251.999 0C208.487 0 173.089 35.398 173.089 78.91C173.089 122.418 208.487 157.82 251.999 157.82ZM251.999 26.39C280.952 26.39 304.511 49.949 304.511 78.906C304.511 107.859 280.952 131.418 251.999 131.418C223.042 131.418 199.483 107.859 199.483 78.906C199.483 49.949 223.042 26.39 251.999 26.39V26.39Z" fill="black"/>
</svg>
