<svg width="358" height="385" viewBox="0 0 358 385" fill="none" xmlns="http://www.w3.org/2000/svg">
<path d="M339.5 35H238V17.5C238 7.8398 230.16 0 220.5 0H136.5C126.84 0 119 7.8398 119 17.5V35H17.5C7.8398 35 0 42.8398 0 52.5C0 62.1602 7.8398 70 17.5 70H33.688L73.657 369.81C74.8132 378.509 82.2351 385.001 91.001 385.001H266.001C274.767 385.001 282.189 378.509 283.345 369.81L323.314 70H339.502C349.162 70 357.002 62.1602 357.002 52.5C357.002 42.8398 349.162 35 339.502 35H339.5ZM250.688 350H106.328L68.984 70H288.014L250.688 350Z" fill="black"/>
</svg>
